<?xml version="1.0" standalone="no"?>
<!DOCTYPE svg PUBLIC "-//W3C//DTD SVG 20010904//EN"
 "http://www.w3.org/TR/2001/REC-SVG-20010904/DTD/svg10.dtd">
<svg version="1.0" xmlns="http://www.w3.org/2000/svg"
 width="500.000000pt" height="500.000000pt" viewBox="0 0 500.000000 500.000000"
 preserveAspectRatio="xMidYMid meet">

<g transform="translate(0.000000,500.000000) scale(0.100000,-0.100000)"
fill="#000000" stroke="none">
<path d="M0 2500 l0 -2500 2500 0 2500 0 0 2500 0 2500 -2500 0 -2500 0 0
-2500z m2768 1466 c262 -54 514 -179 708 -353 32 -29 55 -53 52 -53 -4 0 -35
25 -70 55 -124 109 -300 212 -458 270 -154 55 -271 76 -465 82 -224 7 -288 -6
-480 -101 -194 -95 -350 -221 -466 -376 -54 -73 -143 -257 -169 -350 -70 -253
-67 -584 9 -882 33 -131 62 -194 121 -260 51 -58 164 -134 265 -178 41 -18 75
-36 75 -41 0 -8 -37 5 -125 46 -27 12 -81 33 -120 45 -38 13 -73 28 -77 34 -4
6 -10 7 -14 4 -6 -7 -76 24 -102 45 -11 8 -11 12 0 19 9 6 5 7 -10 3 -13 -4
-28 -1 -36 7 -12 12 -12 19 0 46 8 21 9 32 2 32 -5 0 -8 6 -5 13 3 7 -3 13
-13 14 -10 1 -20 -7 -23 -17 -3 -12 -12 -17 -23 -15 -11 2 -22 4 -26 4 -5 1
-8 5 -8 10 0 6 9 8 20 6 11 -2 22 0 24 4 3 4 -7 7 -21 6 -21 -1 -31 -10 -45
-40 -10 -22 -16 -32 -14 -23 3 9 10 36 16 59 9 31 14 39 21 28 7 -12 9 -12 9
1 0 9 3 11 8 5 9 -13 27 -13 39 -1 5 5 2 6 -6 1 -11 -6 -13 -2 -7 19 4 17 3
25 -3 22 -5 -3 -11 -1 -13 6 -3 7 -7 5 -11 -6 -4 -10 -3 -15 3 -11 6 3 10 -1
10 -9 0 -9 -7 -13 -20 -11 -11 2 -24 -3 -30 -13 -8 -14 -10 -14 -11 -2 -1 18
-28 -38 -28 -60 -1 -13 0 -13 10 0 8 11 9 9 3 -10 -3 -14 -10 -32 -15 -40 -7
-13 -8 -13 -9 0 0 13 -1 13 -10 0 -14 -22 -12 -10 8 51 24 68 36 130 22 109
-9 -13 -10 -13 -11 0 0 8 -7 2 -15 -15 l-14 -30 6 35 c13 77 13 83 -1 45 l-15
-40 5 40 c5 31 3 37 -5 25 -9 -11 -10 -3 -6 35 3 33 2 43 -4 30 -7 -17 -9 -16
-10 10 -2 21 -6 10 -16 -35 -7 -36 -13 -74 -12 -85 0 -11 7 7 14 40 l13 60 -4
-60 c-3 -44 -2 -53 5 -35 7 20 8 15 5 -20 -4 -34 -3 -40 5 -25 7 15 8 11 5
-20 -4 -30 -3 -35 4 -20 13 28 13 5 0 -33 -13 -38 6 -115 22 -91 6 9 8 4 3
-16 -4 -23 -3 -26 5 -15 10 13 11 13 11 0 1 -9 6 -5 15 10 9 15 15 19 15 10 0
-9 6 -5 15 10 8 14 14 21 14 15 0 -17 -28 -61 -29 -45 0 8 -7 3 -16 -13 -9
-16 -12 -37 -8 -49 6 -20 9 -17 31 23 13 24 21 33 17 20 -4 -17 -3 -21 6 -16
7 4 5 -5 -4 -23 -18 -36 -20 -46 -6 -37 6 4 7 -1 3 -11 -4 -12 -3 -15 5 -10 8
5 10 1 5 -10 -4 -12 -3 -15 5 -10 8 5 10 1 5 -10 -5 -13 -3 -15 7 -9 9 5 11 4
6 -4 -4 -6 -12 -9 -17 -6 -5 4 -9 2 -9 -3 0 -14 12 -22 24 -15 15 10 40 13 31
5 -4 -4 -12 -7 -18 -7 -5 0 -12 -5 -14 -12 -3 -9 11 -11 35 -4 1 1 4 0 5 -1 2
-2 12 4 23 12 18 14 18 14 5 -2 -7 -10 -17 -16 -21 -13 -5 3 -11 1 -15 -5 -4
-6 -11 -8 -16 -5 -5 4 -9 2 -9 -3 0 -16 13 -22 27 -11 7 6 13 8 13 4 0 -5 9 0
20 10 11 10 20 15 20 10 0 -4 7 -2 15 5 8 7 15 9 15 5 0 -4 8 -1 18 6 15 13
16 12 3 -3 -7 -10 -17 -16 -21 -13 -5 3 -11 1 -15 -5 -4 -6 -10 -8 -14 -5 -5
2 -16 -4 -26 -15 -10 -11 -22 -17 -26 -14 -10 6 -12 -10 -2 -19 3 -4 15 0 25
10 10 9 18 13 18 8 0 -4 7 -1 16 6 15 12 52 24 41 12 -3 -2 -8 -3 -10 -1 -7 4
-57 -43 -57 -53 0 -14 30 -3 54 20 18 17 26 20 32 9 4 -7 3 -10 -1 -5 -8 7
-75 -50 -75 -64 0 -15 31 -2 60 26 16 16 30 26 30 22 0 -4 0 -9 0 -12 0 -3 -2
-4 -3 -2 -8 5 -37 -26 -32 -33 3 -5 1 -11 -5 -15 -6 -4 -8 -10 -5 -15 3 -5 -4
-7 -15 -5 -12 2 -20 -1 -18 -6 2 -6 6 -9 9 -7 3 2 13 -3 21 -9 12 -11 18 -9
33 7 10 11 14 20 10 20 -4 0 -1 8 8 18 10 10 14 22 10 27 -5 4 -2 5 5 1 11 -7
11 -11 0 -24 -12 -14 -16 -42 -9 -67 0 -3 1 -8 0 -11 -1 -3 12 -19 27 -35 15
-16 24 -29 20 -29 -5 0 -3 -7 4 -15 7 -8 17 -12 24 -8 6 3 8 3 4 -2 -4 -4 -3
-14 3 -21 7 -8 7 -14 -1 -19 -6 -3 -7 -12 -3 -18 4 -7 -1 -6 -10 2 -10 8 -15
16 -12 19 3 3 -6 18 -21 33 -14 15 -26 30 -25 33 1 3 -2 6 -5 5 -3 -1 -19 12
-35 27 -16 15 -29 24 -29 20 0 -5 -6 -4 -12 1 -7 6 -21 9 -31 8 -36 -6 -213
255 -199 294 3 8 0 11 -7 7 -7 -5 -9 -1 -4 10 4 11 2 15 -4 11 -24 -15 -111
237 -138 401 -14 82 -16 141 -12 285 6 193 20 282 73 441 32 96 145 321 161
321 6 0 15 4 20 9 5 5 2 6 -6 1 -9 -5 -12 -3 -9 6 3 8 10 14 16 14 5 0 14 4
19 9 5 5 3 6 -4 2 -7 -4 -13 -3 -13 2 0 15 26 33 35 24 5 -4 5 -1 1 6 -9 16
69 115 160 203 218 209 492 345 789 394 110 18 375 13 483 -9z m-163 -286 c10
-11 15 -23 11 -27 -4 -5 -12 0 -17 10 -11 20 -59 23 -77 5 -7 -7 -12 -21 -12
-33 0 -12 5 -26 12 -33 16 -16 60 -15 77 1 11 10 13 9 9 -3 -3 -8 -16 -19 -31
-24 -38 -14 -77 15 -77 56 0 61 66 91 105 48z m280 -70 c24 -26 15 -69 -18
-94 -26 -19 -30 -19 -54 -6 -38 22 -49 44 -37 77 17 50 74 62 109 23z m210
-132 c-4 -18 -9 -41 -12 -51 -4 -15 4 -12 38 12 23 17 44 30 46 28 3 -3 -36
-105 -44 -116 -2 -2 -5 -2 -8 1 -3 3 2 22 10 42 17 40 16 41 -37 4 -31 -21
-31 -20 -19 36 l9 38 -29 -28 c-44 -42 -48 -19 -4 26 47 48 59 50 50 8z m271
-190 c7 -22 -11 -48 -34 -48 -8 0 -24 7 -34 17 -17 15 -19 15 -38 -2 -37 -34
-20 -1 22 42 39 40 43 42 60 27 9 -9 20 -25 24 -36z m483 -193 c0 -5 -8 6 -19
25 -11 19 -19 40 -19 45 0 6 8 -6 19 -25 11 -19 19 -39 19 -45z m-329 10 c0
-8 -72 -115 -77 -115 -3 0 -2 11 1 25 9 35 -10 68 -35 60 -10 -4 -19 -2 -19 3
0 6 21 14 48 20 56 12 82 14 82 7z m395 -193 c58 -200 71 -489 30 -687 -93
-452 -405 -864 -810 -1068 -136 -68 -382 -144 -402 -123 -3 3 3 6 14 6 29 0
213 48 232 61 13 8 11 9 -9 5 -68 -16 -70 -14 -10 8 36 14 56 25 45 26 l-20 1
20 9 c27 12 43 12 25 0 -13 -9 -13 -10 0 -10 8 0 22 5 30 10 13 9 13 10 0 10
-13 0 -13 1 0 11 12 8 10 9 -10 5 -66 -16 -70 -14 -17 5 69 25 69 39 1 15 -57
-19 -84 -20 -34 -1 25 10 29 14 15 15 -18 1 39 25 105 44 19 6 21 5 10 -3 -13
-10 -13 -11 0 -11 13 0 13 -1 0 -10 -13 -9 -13 -10 0 -11 8 0 -2 -8 -23 -17
l-38 -17 30 -12 c22 -8 29 -8 24 0 -4 7 0 8 11 4 9 -4 15 -3 12 1 -3 5 11 16
30 26 30 14 34 19 24 31 -15 18 1 20 20 3 12 -11 12 -10 1 5 -7 9 -10 17 -5
17 5 0 0 7 -10 15 -15 11 -16 15 -5 15 8 0 21 -6 29 -12 12 -11 12 -10 1 5
-15 20 -2 23 19 5 12 -11 12 -10 1 5 -7 9 -10 17 -6 17 5 0 18 -8 29 -17 21
-18 21 -18 3 3 -17 21 -17 22 13 34 36 15 45 26 29 36 -8 5 -9 3 -4 -6 6 -10
4 -12 -9 -7 -10 4 -15 3 -11 -3 8 -13 -1 -13 -27 1 -16 9 -19 8 -13 -2 6 -9 3
-11 -9 -6 -11 5 -15 3 -10 -5 5 -8 2 -9 -10 -5 -9 4 -15 3 -12 -1 3 -5 -11
-14 -31 -21 -27 -10 -32 -15 -22 -23 10 -7 8 -8 -9 -5 -12 3 -20 1 -16 -4 6
-11 -13 -11 -40 0 -15 6 -10 10 23 20 23 6 39 16 36 21 -4 6 -1 10 6 10 7 0
10 2 8 5 -3 2 -15 2 -28 -2 -17 -4 -20 -8 -9 -15 9 -7 3 -8 -17 -4 -18 4 -25
3 -17 -2 9 -6 -7 -15 -48 -27 -42 -13 -57 -21 -48 -27 9 -6 4 -8 -14 -4 -14 3
-41 3 -59 -1 -29 -5 -31 -7 -14 -15 16 -7 15 -7 -5 -3 -14 2 -34 5 -45 6 -19
0 69 30 129 44 23 5 27 8 15 16 -9 6 -1 8 26 6 25 -1 39 2 38 9 -1 6 25 19 58
29 94 29 49 40 -51 13 -60 -16 -77 -24 -64 -29 29 -12 8 -10 -43 2 l-45 12 28
14 c25 11 26 13 5 9 -16 -3 -21 -2 -14 5 6 6 23 7 38 3 l28 -7 -29 -13 c-50
-22 -18 -15 107 21 67 20 131 33 142 30 12 -2 16 -2 10 1 -16 7 -17 34 -1 34
6 0 9 2 7 5 -3 2 -15 2 -28 -2 -17 -4 -20 -8 -9 -15 9 -7 8 -8 -5 -4 -27 9
-112 -14 -95 -26 16 -12 -20 -3 -81 19 -30 11 -39 18 -30 24 7 4 10 12 5 16
-4 4 -16 -2 -26 -14 -10 -13 -24 -23 -32 -23 -23 0 -39 -22 -27 -36 8 -9 5
-11 -12 -7 -15 4 -20 3 -15 -5 4 -7 2 -12 -4 -12 -6 0 -8 -4 -5 -10 3 -5 -1
-10 -9 -10 -17 0 -18 20 -1 32 5 4 7 9 4 13 -3 3 -14 -4 -23 -14 -18 -19 -17
-21 15 -41 l34 -21 -30 6 -30 5 30 -15 30 -16 -30 6 c-22 4 -26 3 -15 -5 18
-12 3 -12 -25 0 -11 5 -14 9 -7 9 7 1 10 6 7 11 -3 6 -1 10 4 10 6 0 11 4 11
9 0 12 -59 20 -66 9 -3 -4 5 -9 18 -9 18 -1 19 -2 5 -6 -10 -3 -24 1 -32 7
-10 9 -19 9 -35 0 -12 -6 -19 -14 -16 -18 4 -3 12 0 18 6 7 7 17 12 22 12 6 0
1 -7 -12 -15 -12 -9 -27 -15 -34 -14 -7 1 -29 0 -48 -1 -33 -2 -34 -2 -10 -11
22 -7 20 -8 -12 -6 -20 2 -35 0 -32 -4 2 -4 -22 -10 -53 -14 -39 -5 -52 -10
-42 -16 8 -5 9 -9 3 -9 -6 0 -14 3 -18 8 -13 12 -54 9 -49 -4 2 -6 12 -11 21
-9 9 1 11 0 5 -2 -7 -3 -13 -10 -13 -16 0 -6 -7 -1 -16 12 -15 21 -21 22 -73
16 -31 -5 -64 -8 -74 -7 -9 0 -15 -2 -13 -7 3 -4 -11 -5 -30 -3 -19 2 -34 8
-34 12 0 5 -18 7 -41 5 -25 -3 -39 -1 -37 6 2 6 7 10 11 10 4 -1 28 -1 53 -1
29 0 43 -4 39 -10 -4 -7 2 -9 17 -6 35 7 108 18 153 22 22 2 51 6 65 9 14 4
32 8 40 9 9 1 21 5 28 10 6 4 16 5 21 1 5 -3 12 -1 15 4 3 5 23 12 43 16 40 7
63 21 63 37 0 6 -7 5 -15 -2 -8 -7 -15 -9 -15 -4 0 4 -5 3 -12 -4 -15 -15 -32
-16 -23 -2 3 6 1 10 -4 10 -6 0 -11 -5 -11 -11 0 -6 -9 -8 -20 -4 -11 4 -20 2
-20 -4 0 -6 -5 -11 -11 -11 -5 0 -7 6 -3 13 4 6 -1 5 -12 -4 -33 -28 -51 -35
-31 -12 9 11 15 22 12 25 -3 3 21 8 54 11 130 14 301 76 476 172 88 49 124 66
96 47 -18 -13 -23 -42 -8 -42 5 0 8 -3 5 -6 -4 -3 -16 0 -28 6 -16 9 -25 9
-36 0 -21 -18 -6 -32 29 -26 25 5 27 4 12 -3 -11 -5 -14 -10 -7 -10 7 -1 11
-5 8 -10 -3 -5 6 -12 20 -15 15 -4 24 -9 22 -12 -9 -9 -68 18 -61 29 4 7 0 8
-12 3 -11 -4 -25 0 -34 8 -15 14 -18 13 -29 -4 -10 -17 -8 -22 16 -35 24 -15
15 -14 -22 1 -7 3 -16 -2 -20 -12 -4 -12 -2 -15 9 -10 20 7 46 -4 38 -16 -7
-12 8 -9 112 21 38 12 79 19 90 16 11 -3 7 2 -10 10 -37 18 -68 21 -45 4 12
-9 12 -10 -3 -5 -10 3 -24 6 -30 7 -7 0 -2 4 11 10 13 5 36 6 50 3 22 -5 24
-3 12 6 -12 9 -9 10 13 5 20 -4 27 -2 22 6 -5 8 -1 9 15 4 16 -5 20 -4 15 5
-5 9 -1 10 15 5 14 -5 20 -3 16 3 -3 6 0 13 6 16 7 3 2 3 -12 0 -14 -3 -37 0
-50 6 -22 9 -21 9 10 4 27 -4 32 -3 20 6 -12 9 -11 10 8 6 12 -3 32 -9 45 -12
17 -4 19 -3 7 5 -11 8 -12 11 -2 11 7 0 10 5 6 11 -5 9 2 10 22 6 16 -3 23 -4
15 0 -11 5 -11 7 0 15 10 7 9 8 -6 4 -53 -14 -76 -14 -36 -1 77 26 88 28 71
15 -13 -10 -12 -11 3 -6 10 3 23 6 28 6 5 0 9 7 9 15 0 9 -6 12 -17 9 -10 -3
-8 1 5 8 12 8 20 17 16 20 -3 4 4 4 17 1 14 -4 20 -2 16 4 -4 6 4 8 20 5 14
-3 24 -1 21 4 -7 11 18 32 97 82 34 22 75 56 92 78 43 55 106 184 136 279 51
162 62 239 61 415 -1 177 -20 300 -69 445 -35 106 -37 114 -15 66 11 -24 31
-82 45 -129z m-1595 86 c64 -32 90 -76 90 -150 0 -93 -51 -171 -122 -185 -16
-3 -28 -8 -28 -10 0 -3 59 -68 130 -145 126 -135 130 -142 130 -184 0 -24 -2
-44 -4 -44 -2 0 -84 88 -181 195 -97 107 -181 195 -186 195 -5 0 -9 4 -9 9 0
4 27 11 60 14 103 9 148 64 138 169 -6 53 -31 96 -69 115 -13 7 -54 13 -91 13
l-68 0 0 -298 c0 -272 2 -300 18 -314 9 -9 26 -18 37 -21 11 -2 -29 -5 -90 -6
l-110 -1 35 18 35 17 0 300 0 300 -35 17 c-35 18 -34 18 120 18 142 0 160 -2
200 -22z m1304 -110 c-4 -7 -16 -25 -26 -40 -26 -37 -23 -40 19 -23 20 8 38
13 41 10 3 -3 3 -6 1 -8 -11 -9 -111 -48 -115 -45 -2 2 8 21 22 42 28 41 27
53 -4 37 -12 -6 -29 -11 -39 -10 -10 0 5 11 32 24 57 27 80 31 69 13z m-825
-211 c75 -50 91 -149 35 -216 -13 -16 -24 -31 -24 -34 0 -3 15 -8 33 -11 45
-8 113 -68 127 -112 7 -20 10 -61 8 -90 -9 -103 -99 -173 -235 -182 -166 -11
-268 57 -288 191 -5 32 -4 47 4 47 6 0 11 -9 11 -20 0 -47 49 -128 91 -150 14
-8 16 18 17 268 1 152 -1 285 -4 295 -3 10 -20 25 -37 33 -30 13 -22 14 94 12
119 -3 128 -5 168 -31z m898 -55 l-27 -28 30 -11 c17 -6 30 -16 30 -22 0 -8
-7 -8 -22 1 -13 7 -43 15 -68 19 l-45 6 32 8 c17 4 42 18 54 31 12 13 27 24
33 24 5 0 -2 -13 -17 -28z m-2453 -516 c-3 -15 -8 -25 -11 -23 -2 3 -1 17 3
31 3 15 8 25 11 23 2 -3 1 -17 -3 -31z m33 -28 c-3 -8 -6 -5 -6 6 -1 11 2 17
5 13 3 -3 4 -12 1 -19z m110 -12 c-3 -8 -1 -16 5 -18 6 -2 2 -24 -12 -57 -14
-32 -26 -48 -30 -40 -5 8 -10 4 -15 -10 -4 -13 -9 -20 -11 -18 -3 2 1 16 7 31
7 15 15 22 19 16 4 -6 11 0 18 15 7 15 8 25 2 25 -6 0 -10 -5 -10 -12 0 -6 -2
-9 -5 -6 -8 8 6 39 15 33 5 -3 12 -1 15 5 4 6 2 9 -3 8 -6 -2 -10 2 -10 7 1
15 9 35 15 35 3 0 3 -6 0 -14z m-32 -25 c3 -5 1 -12 -5 -16 -5 -3 -10 1 -10 9
0 18 6 21 15 7z m-64 -48 c-12 -20 -14 -14 -5 12 4 9 9 14 11 11 3 -2 0 -13
-6 -23z m40 -10 c-12 -20 -14 -14 -5 12 4 9 9 14 11 11 3 -2 0 -13 -6 -23z
m-70 -10 c-12 -20 -14 -14 -5 12 4 9 9 14 11 11 3 -2 0 -13 -6 -23z m100 -72
c-17 -34 -34 -61 -36 -61 -3 0 -1 9 5 19 13 25 13 34 0 26 -6 -3 -7 1 -3 10 4
11 8 13 13 5 4 -6 14 6 25 30 10 22 20 38 22 36 2 -2 -10 -31 -26 -65z m34
-20 c-21 -43 -29 -39 -8 4 9 19 18 33 21 31 2 -2 -4 -18 -13 -35z m-2 -48 c-4
-11 -3 -14 5 -9 8 5 10 1 5 -10 -5 -12 -3 -15 6 -9 10 6 11 3 2 -14 -14 -25
-23 -28 -14 -4 4 11 3 14 -5 9 -8 -5 -10 -1 -5 10 5 12 3 15 -6 9 -10 -6 -11
-3 -2 14 14 25 23 28 14 4z m173 -268 c1 -8 -1 -17 -5 -19 -4 -3 -7 6 -7 19 0
25 8 25 12 0z m1629 -25 c-3 -5 -12 -10 -18 -10 -7 0 -6 4 3 10 19 12 23 12
15 0z m-1618 -27 c0 -9 -4 -10 -14 -2 -7 6 -13 12 -13 14 0 1 6 2 13 2 8 0 14
-6 14 -14z m-137 -18 c0 4 6 2 13 -4 8 -6 16 -9 19 -6 3 3 13 -4 23 -15 10
-11 14 -20 10 -20 -5 0 2 -11 15 -25 13 -14 20 -25 16 -25 -5 0 -3 -8 5 -17 7
-10 -22 16 -64 57 -42 41 -77 76 -77 79 0 2 9 -4 20 -14 11 -10 20 -15 20 -10z
m1777 9 c-3 -3 -12 -4 -19 -1 -8 3 -5 6 6 6 11 1 17 -2 13 -5z m-37 -8 c0 -2
-7 -7 -16 -10 -8 -3 -12 -2 -9 4 6 10 25 14 25 6z m-95 -34 c-3 -3 -11 0 -18
7 -9 10 -8 11 6 5 10 -3 15 -9 12 -12z m-116 -61 c9 -6 6 -8 -13 -8 -14 0 -23
3 -20 8 7 11 15 11 33 0z m-1325 -32 c-3 -5 -10 -7 -15 -3 -5 3 -7 10 -3 15 3
5 10 7 15 3 5 -3 7 -10 3 -15z m1443 15 c-3 -3 -12 -4 -19 -1 -8 3 -5 6 6 6
11 1 17 -2 13 -5z m-40 -10 c-3 -3 -12 -4 -19 -1 -8 3 -5 6 6 6 11 1 17 -2 13
-5z m-1362 -23 c3 -5 2 -12 -3 -15 -5 -3 -9 1 -9 9 0 17 3 19 12 6z m665 5 c0
-11 -19 -15 -25 -6 -3 5 1 10 9 10 9 0 16 -2 16 -4z m67 -12 c-10 -11 -67 -13
-61 -3 3 5 19 9 36 9 17 0 28 -3 25 -6z m668 -4 c-11 -5 -27 -9 -35 -9 -9 0
-8 4 5 9 11 5 27 9 35 9 9 0 8 -4 -5 -9z m-615 -15 c-14 -16 -25 -21 -15 -6 3
5 -3 12 -12 14 -11 3 -6 5 11 6 24 1 27 -1 16 -14z m50 11 c0 -11 -19 -15 -25
-6 -3 5 1 10 9 10 9 0 16 -2 16 -4z m730 -15 c-19 -10 -46 -21 -60 -25 -14 -3
-2 5 25 18 58 28 87 34 35 7z m-303 3 c-3 -3 -12 -4 -19 -1 -8 3 -5 6 6 6 11
1 17 -2 13 -5z m40 -10 c-3 -3 -12 -4 -19 -1 -8 3 -5 6 6 6 11 1 17 -2 13 -5z
m80 0 c-3 -3 -12 -4 -19 -1 -8 3 -5 6 6 6 11 1 17 -2 13 -5z m-277 -12 c-23
-4 -24 -5 -5 -13 18 -7 18 -8 -5 -9 -23 -1 -23 -2 -5 -10 14 -6 15 -9 5 -9 -9
-1 -21 4 -27 10 -16 16 6 38 37 37 l25 -1 -25 -5z m157 2 c-3 -3 -12 -4 -19
-1 -8 3 -5 6 6 6 11 1 17 -2 13 -5z m40 -10 c-3 -3 -12 -4 -19 -1 -8 3 -5 6 6
6 11 1 17 -2 13 -5z m-264 -11 c-7 -2 -19 -2 -25 0 -7 3 -2 5 12 5 14 0 19 -2
13 -5z m189 -9 c-24 -8 -49 -13 -55 -11 -14 5 48 25 78 26 11 0 1 -7 -23 -15z
m-75 0 c-3 -3 -12 -4 -19 -1 -8 3 -5 6 6 6 11 1 17 -2 13 -5z m257 -3 c41 -16
-337 -106 -396 -94 -32 7 -32 7 -8 14 24 7 24 7 -5 9 l-30 2 30 8 30 8 -36 1
c-24 1 -39 -4 -43 -14 -3 -8 -13 -14 -23 -14 -16 1 -16 2 1 6 15 4 16 7 5 14
-12 7 -11 9 2 9 9 0 22 11 29 25 9 17 21 25 39 24 l26 -1 -25 -8 c-24 -8 -24
-8 7 -9 17 -1 34 -5 37 -10 4 -5 -13 -7 -36 -5 -43 3 -43 3 -8 -6 19 -5 51
-13 70 -19 l35 -11 -37 4 c-26 3 -38 0 -42 -10 -6 -17 5 -16 159 17 49 10 92
19 95 20 3 0 -4 5 -15 10 -17 8 -15 8 8 4 37 -7 84 4 65 17 -8 5 -2 6 17 2 23
-4 26 -3 15 5 -13 10 -13 11 0 10 8 0 24 -4 34 -8z m104 0 c19 -12 -14 -24
-42 -15 -21 7 -21 7 -1 15 26 10 28 10 43 0z m-452 -10 c5 -5 18 -11 29 -14
16 -4 14 -5 -6 -6 -15 0 -32 6 -39 14 -13 16 0 21 16 6z m-121 -11 c3 -5 2
-10 -4 -10 -5 0 -13 5 -16 10 -3 6 -2 10 4 10 5 0 13 -4 16 -10z m212 4 c-3
-3 -12 -4 -19 -1 -8 3 -5 6 6 6 11 1 17 -2 13 -5z m340 -15 l28 -11 -45 -23
c-25 -13 -49 -24 -55 -24 -5 0 6 8 25 19 19 11 28 20 20 20 -12 1 -12 3 -1 7
11 5 11 7 0 14 -19 12 -6 11 28 -2z m-582 -9 c3 -5 2 -10 -4 -10 -5 0 -13 5
-16 10 -3 6 -2 10 4 10 5 0 13 -4 16 -10z m242 4 c-3 -3 -12 -4 -19 -1 -8 3
-5 6 6 6 11 1 17 -2 13 -5z m-54 -11 c-7 -2 -21 -2 -30 0 -10 3 -4 5 12 5 17
0 24 -2 18 -5z m-208 -13 c3 -5 -3 -10 -15 -10 -12 0 -18 -4 -15 -10 3 -5 1
-10 -4 -10 -14 0 -14 13 1 28 15 15 25 15 33 2z m412 -6 c-3 -3 -12 -4 -19 -1
-8 3 -5 6 6 6 11 1 17 -2 13 -5z m-520 -10 c-3 -3 -12 -4 -19 -1 -8 3 -5 6 6
6 11 1 17 -2 13 -5z m480 0 c-3 -3 -12 -4 -19 -1 -8 3 -5 6 6 6 11 1 17 -2 13
-5z m-40 -10 c-3 -3 -12 -4 -19 -1 -8 3 -5 6 6 6 11 1 17 -2 13 -5z m-44 -11
c-7 -2 -19 -2 -25 0 -7 3 -2 5 12 5 14 0 19 -2 13 -5z m94 1 c-3 -3 -12 -4
-19 -1 -8 3 -5 6 6 6 11 1 17 -2 13 -5z m-524 -11 c-7 -2 -19 -2 -25 0 -7 3
-2 5 12 5 14 0 19 -2 13 -5z m250 0 c-7 -2 -21 -2 -30 0 -10 3 -4 5 12 5 17 0
24 -2 18 -5z m130 0 c-7 -2 -19 -2 -25 0 -7 3 -2 5 12 5 14 0 19 -2 13 -5z
m92 -2 c-11 -5 -40 -11 -65 -14 l-45 -6 50 14 c56 15 91 18 60 6z m-302 -8
c-7 -2 -21 -2 -30 0 -10 3 -4 5 12 5 17 0 24 -2 18 -5z m154 1 c-3 -3 -12 -4
-19 -1 -8 3 -5 6 6 6 11 1 17 -2 13 -5z m-289 -11 c-16 -2 -40 -2 -55 0 -16 2
-3 4 27 4 30 0 43 -2 28 -4z m225 0 c-7 -2 -19 -2 -25 0 -7 3 -2 5 12 5 14 0
19 -2 13 -5z m244 1 c-3 -3 -12 -4 -19 -1 -8 3 -5 6 6 6 11 1 17 -2 13 -5z
m-329 -11 c-10 -2 -26 -2 -35 0 -10 3 -2 5 17 5 19 0 27 -2 18 -5z m165 0 c-7
-2 -19 -2 -25 0 -7 3 -2 5 12 5 14 0 19 -2 13 -5z m124 1 c-3 -3 -12 -4 -19
-1 -8 3 -5 6 6 6 11 1 17 -2 13 -5z m-184 -11 c-7 -2 -21 -2 -30 0 -10 3 -4 5
12 5 17 0 24 -2 18 -5z m140 0 c-7 -2 -19 -2 -25 0 -7 3 -2 5 12 5 14 0 19 -2
13 -5z m62 -8 c-22 -8 -49 -13 -60 -13 -11 0 0 6 25 13 59 17 87 17 35 0z
m-287 -2 c-10 -2 -28 -2 -40 0 -13 2 -5 4 17 4 22 1 32 -1 23 -4z m175 0 c-7
-2 -19 -2 -25 0 -7 3 -2 5 12 5 14 0 19 -2 13 -5z m-315 -10 c-15 -2 -42 -2
-60 0 -18 2 -6 4 27 4 33 0 48 -2 33 -4z m255 0 c-7 -2 -21 -2 -30 0 -10 3 -4
5 12 5 17 0 24 -2 18 -5z m-85 -10 c-10 -2 -26 -2 -35 0 -10 3 -2 5 17 5 19 0
27 -2 18 -5z m165 0 c-7 -2 -19 -2 -25 0 -7 3 -2 5 12 5 14 0 19 -2 13 -5z
m-300 -10 c-23 -2 -64 -2 -90 0 -26 2 -7 3 42 3 50 0 71 -1 48 -3z m250 0 c-7
-2 -19 -2 -25 0 -7 3 -2 5 12 5 14 0 19 -2 13 -5z m114 1 c-3 -3 -12 -4 -19
-1 -8 3 -5 6 6 6 11 1 17 -2 13 -5z m-184 -11 c-7 -2 -21 -2 -30 0 -10 3 -4 5
12 5 17 0 24 -2 18 -5z m140 0 c-7 -2 -19 -2 -25 0 -7 3 -2 5 12 5 14 0 19 -2
13 -5z m-290 -10 c-34 -2 -93 -2 -130 0 -37 2 -9 3 62 3 72 0 102 -1 68 -3z
m240 0 c-7 -2 -19 -2 -25 0 -7 3 -2 5 12 5 14 0 19 -2 13 -5z m-50 -10 c-7 -2
-21 -2 -30 0 -10 3 -4 5 12 5 17 0 24 -2 18 -5z m-355 -10 c-10 -2 -28 -2 -40
0 -13 2 -5 4 17 4 22 1 32 -1 23 -4z m270 0 c-10 -2 -28 -2 -40 0 -13 2 -5 4
17 4 22 1 32 -1 23 -4z m-141 -9 c-3 -3 -12 -4 -19 -1 -8 3 -5 6 6 6 11 1 17
-2 13 -5z m-174 -11 c-7 -2 -21 -2 -30 0 -10 3 -4 5 12 5 17 0 24 -2 18 -5z
m365 0 c-10 -2 -28 -2 -40 0 -13 2 -5 4 17 4 22 1 32 -1 23 -4z m-245 -10 c-7
-2 -21 -2 -30 0 -10 3 -4 5 12 5 17 0 24 -2 18 -5z m125 0 c-10 -2 -28 -2 -40
0 -13 2 -5 4 17 4 22 1 32 -1 23 -4z"/>
<path d="M1343 3348 c-20 -26 -23 -37 -13 -43 6 -4 10 -3 9 2 -3 19 2 34 9 29
5 -3 9 1 9 9 0 18 -2 18 -14 3z"/>
<path d="M1300 3280 c-12 -23 -35 -28 -26 -5 8 22 -2 18 -14 -5 -6 -11 -7 -19
-1 -18 11 3 13 -10 5 -35 -3 -9 -10 -15 -15 -11 -6 3 -8 12 -5 20 3 8 3 14 0
14 -3 0 -25 -42 -49 -92 -103 -219 -146 -416 -143 -661 l1 -152 7 192 c3 106
8 194 11 197 2 2 4 -95 4 -217 1 -140 5 -237 13 -262 11 -39 11 -39 6 -5 -2
19 -6 118 -8 220 -3 179 -3 180 3 35 l7 -150 4 155 4 155 6 -155 6 -155 2 140
c2 162 21 300 59 435 14 52 26 109 25 125 0 17 2 23 5 16 4 -10 15 5 29 37 13
29 20 60 17 69 -4 11 -3 14 5 9 8 -5 10 -1 5 10 -4 12 -3 15 5 10 8 -5 10 -1
5 10 -4 12 -3 15 5 10 8 -5 10 -1 5 10 -4 12 -3 15 5 10 8 -5 10 -1 5 10 -5
13 -3 15 8 9 8 -4 11 -5 7 0 -4 4 0 13 9 20 11 8 12 14 5 19 -6 3 -16 -3 -22
-14z m-56 -86 c3 -8 2 -12 -4 -9 -13 8 -13 -8 0 -21 6 -6 8 -18 4 -28 -6 -15
-7 -15 -21 1 -14 17 -14 17 -9 0 4 -12 2 -16 -6 -11 -8 5 -9 2 -5 -9 17 -41
17 -50 2 -27 l-16 25 7 -24 c5 -18 3 -22 -7 -16 -9 6 -10 4 -6 -8 17 -41 17
-50 2 -27 -9 14 -14 18 -12 10 2 -8 7 -26 11 -40 l7 -25 -16 25 -16 25 7 -24
c4 -16 3 -21 -5 -17 -14 9 -14 4 -1 -29 7 -19 6 -43 -6 -87 -8 -33 -21 -99
-29 -147 -11 -75 -13 -80 -16 -41 l-2 45 -6 -45 -6 -45 -8 66 c-11 95 29 243
115 432 17 37 32 67 33 67 2 0 6 -7 9 -16z"/>
<path d="M1220 3161 c0 -5 5 -13 10 -16 6 -3 10 -2 10 4 0 5 -4 13 -10 16 -5
3 -10 2 -10 -4z"/>
<path d="M1132 2939 c-6 -24 -9 -57 -6 -74 4 -25 3 -27 -5 -10 -8 15 -9 9 -6
-25 3 -33 2 -38 -4 -20 -7 22 -9 20 -16 -23 -4 -26 -5 -51 -1 -54 3 -4 7 9 7
28 l2 34 7 -35 c6 -28 8 -30 9 -10 1 14 10 62 21 107 12 52 17 90 11 104 -7
20 -9 17 -19 -22z m15 -11 c-3 -8 -6 -5 -6 6 -1 11 2 17 5 13 3 -3 4 -12 1
-19z m-10 -40 c-3 -8 -6 -5 -6 6 -1 11 2 17 5 13 3 -3 4 -12 1 -19z"/>
<path d="M1305 3199 c-9 -17 -15 -33 -13 -35 3 -2 12 12 21 31 21 43 13 47 -8
4z"/>
<path d="M1266 3115 c-9 -26 -7 -32 5 -12 6 10 9 21 6 23 -2 3 -7 -2 -11 -11z"/>
<path d="M1236 3046 c5 -13 4 -17 -4 -12 -14 8 -15 -3 -3 -22 6 -10 10 -8 14
9 4 13 2 28 -4 34 -7 7 -8 4 -3 -9z"/>
<path d="M1210 2944 c0 -16 -2 -17 -10 -4 -9 13 -10 13 -10 0 0 -8 4 -21 9
-28 6 -10 10 -7 15 13 4 15 5 30 1 33 -3 3 -5 -3 -5 -14z"/>
<path d="M1181 2900 c0 -8 4 -24 9 -35 l9 -20 0 20 c0 11 -4 27 -9 35 -9 13
-10 13 -9 0z"/>
<path d="M1172 2860 c0 -8 4 -26 8 -40 6 -20 8 -21 8 -5 0 11 -3 29 -8 40 -5
12 -8 14 -8 5z"/>
<path d="M1162 2815 c0 -11 4 -33 8 -50 7 -27 8 -27 8 -5 0 14 -4 36 -8 50 -6
20 -8 21 -8 5z"/>
<path d="M1157 2720 c3 -30 7 -57 9 -59 7 -8 2 64 -6 89 -6 16 -7 6 -3 -30z"/>
<path d="M1286 2745 c4 -8 8 -15 10 -15 2 0 4 7 4 15 0 8 -4 15 -10 15 -5 0
-7 -7 -4 -15z"/>
<path d="M1148 2550 c2 -91 5 -169 7 -175 7 -20 3 251 -4 295 -4 25 -5 -29 -3
-120z"/>
<path d="M1213 2675 c0 -22 2 -30 4 -17 2 12 2 30 0 40 -3 9 -5 -1 -4 -23z"/>
<path d="M1271 2644 c0 -11 3 -14 6 -6 3 7 2 16 -1 19 -3 4 -6 -2 -5 -13z"/>
<path d="M1134 2495 c0 -71 1 -99 3 -62 2 37 2 96 0 130 -2 34 -3 4 -3 -68z"/>
<path d="M1223 2560 c0 -25 2 -35 4 -22 2 12 2 32 0 45 -2 12 -4 2 -4 -23z"/>
<path d="M1270 2570 c0 -11 5 -20 10 -20 6 0 10 9 10 20 0 11 -4 20 -10 20 -5
0 -10 -9 -10 -20z"/>
<path d="M1240 2498 c0 -25 3 -29 10 -18 13 20 13 50 0 50 -5 0 -10 -15 -10
-32z"/>
<path d="M1301 2514 c0 -11 3 -14 6 -6 3 7 2 16 -1 19 -3 4 -6 -2 -5 -13z"/>
<path d="M1269 2478 c-3 -22 -1 -34 4 -29 5 5 7 21 5 37 -3 27 -4 26 -9 -8z"/>
<path d="M1198 2477 c-3 -19 -2 -25 4 -19 6 6 8 18 6 28 -3 14 -5 12 -10 -9z"/>
<path d="M1217 2431 c-4 -17 -3 -21 5 -13 5 5 8 16 6 23 -3 8 -7 3 -11 -10z"/>
<path d="M1286 2425 c4 -8 8 -15 10 -15 2 0 4 7 4 15 0 8 -4 15 -10 15 -5 0
-7 -7 -4 -15z"/>
<path d="M1172 2410 c0 -14 2 -19 5 -12 2 6 2 18 0 25 -3 6 -5 1 -5 -13z"/>
<path d="M1237 2411 c-4 -17 -3 -21 5 -13 5 5 8 16 6 23 -3 8 -7 3 -11 -10z"/>
<path d="M1262 2390 c0 -14 2 -19 5 -12 2 6 2 18 0 25 -3 6 -5 1 -5 -13z"/>
<path d="M1310 2394 c0 -8 5 -12 10 -9 6 4 8 11 5 16 -9 14 -15 11 -15 -7z"/>
<path d="M1192 2380 c0 -14 2 -19 5 -12 2 6 2 18 0 25 -3 6 -5 1 -5 -13z"/>
<path d="M1212 2360 c0 -14 2 -19 5 -12 2 6 2 18 0 25 -3 6 -5 1 -5 -13z"/>
<path d="M1281 2364 c0 -11 3 -14 6 -6 3 7 2 16 -1 19 -3 4 -6 -2 -5 -13z"/>
<path d="M1142 2330 c0 -19 3 -53 7 -75 8 -40 8 -39 16 28 4 37 5 71 1 74 -3
4 -7 -14 -8 -38 l-1 -44 -7 45 c-6 41 -7 42 -8 10z"/>
<path d="M1300 2345 c0 -8 2 -15 4 -15 2 0 6 7 10 15 3 8 1 15 -4 15 -6 0 -10
-7 -10 -15z"/>
<path d="M1231 2334 c0 -11 3 -14 6 -6 3 7 2 16 -1 19 -3 4 -6 -2 -5 -13z"/>
<path d="M1103 2305 c0 -22 2 -30 4 -17 2 12 2 30 0 40 -3 9 -5 -1 -4 -23z"/>
<path d="M1123 2305 c0 -22 2 -30 4 -17 2 12 2 30 0 40 -3 9 -5 -1 -4 -23z"/>
<path d="M1252 2320 c0 -14 2 -19 5 -12 2 6 2 18 0 25 -3 6 -5 1 -5 -13z"/>
<path d="M1063 2295 c0 -22 2 -30 4 -17 2 12 2 30 0 40 -3 9 -5 -1 -4 -23z"/>
<path d="M1320 2315 c0 -8 2 -15 4 -15 2 0 6 7 10 15 3 8 1 15 -4 15 -6 0 -10
-7 -10 -15z"/>
<path d="M1290 2295 c0 -8 2 -15 4 -15 2 0 6 7 10 15 3 8 1 15 -4 15 -6 0 -10
-7 -10 -15z"/>
<path d="M1345 2300 c3 -5 8 -10 11 -10 2 0 4 5 4 10 0 6 -5 10 -11 10 -5 0
-7 -4 -4 -10z"/>
<path d="M1217 2271 c-4 -17 -3 -21 5 -13 5 5 8 16 6 23 -3 8 -7 3 -11 -10z"/>
<path d="M1310 2275 c0 -8 2 -15 4 -15 2 0 6 7 10 15 3 8 1 15 -4 15 -6 0 -10
-7 -10 -15z"/>
<path d="M1237 2261 c-4 -17 -3 -21 5 -13 5 5 8 16 6 23 -3 8 -7 3 -11 -10z"/>
<path d="M1335 2270 c-3 -5 -1 -10 4 -10 6 0 11 5 11 10 0 6 -2 10 -4 10 -3 0
-8 -4 -11 -10z"/>
<path d="M1261 2254 c0 -11 3 -14 6 -6 3 7 2 16 -1 19 -3 4 -6 -2 -5 -13z"/>
<path d="M1112 2235 c0 -16 2 -22 5 -12 2 9 2 23 0 30 -3 6 -5 -1 -5 -18z"/>
<path d="M1132 2235 c0 -16 2 -22 5 -12 2 9 2 23 0 30 -3 6 -5 -1 -5 -18z"/>
<path d="M1280 2243 c0 -15 2 -16 10 -3 7 11 10 11 10 2 0 -7 5 -10 11 -6 8 4
7 9 -2 15 -21 13 -29 11 -29 -8z"/>
<path d="M1072 2230 c0 -14 4 -36 8 -50 6 -20 8 -21 8 -5 0 11 -4 34 -8 50 -7
27 -8 27 -8 5z"/>
<path d="M1328 2238 c-4 -10 -1 -19 8 -22 21 -8 24 -8 24 5 0 5 -4 8 -9 4 -5
-3 -11 3 -13 12 -3 16 -4 17 -10 1z"/>
<path d="M1296 2203 c-3 -3 -6 -11 -6 -17 0 -6 5 -4 11 4 8 11 9 7 6 -20 -6
-34 -5 -35 6 -8 10 20 16 25 27 18 22 -14 33 -12 18 4 -7 8 -15 12 -17 10 -2
-2 -11 1 -21 6 -10 5 -20 6 -24 3z"/>
<path d="M1102 2180 c0 -14 2 -19 5 -12 2 6 2 18 0 25 -3 6 -5 1 -5 -13z"/>
<path d="M1113 2148 c-13 -62 -7 -118 9 -82 6 13 7 8 3 -16 -4 -27 -2 -31 6
-20 8 12 9 8 5 -15 -5 -24 -4 -27 5 -15 9 12 10 11 6 -8 -8 -33 2 -58 15 -40
7 9 8 6 5 -10 -8 -33 2 -58 15 -40 7 9 8 7 5 -10 -3 -12 -2 -20 2 -17 11 6 33
-44 25 -57 -5 -7 -2 -8 6 -3 10 6 12 4 7 -9 -4 -9 -3 -15 3 -11 5 3 8 -3 7
-13 -2 -26 62 -124 76 -115 6 4 8 0 5 -9 -9 -21 67 -117 89 -113 10 1 24 -2
31 -8 6 -5 12 -6 12 -1 0 4 14 -5 30 -21 17 -16 30 -25 30 -21 0 5 7 3 15 -4
8 -7 13 -16 10 -20 -2 -4 7 -17 20 -30 13 -13 22 -27 18 -33 -4 -6 -1 -7 6 -2
9 5 5 15 -15 36 -15 16 -24 29 -19 29 5 0 -4 14 -20 30 -16 17 -25 30 -21 30
5 0 3 6 -3 13 -6 8 -7 18 -3 23 4 5 -3 1 -15 -9 -14 -12 -23 -15 -28 -7 -3 5
-10 8 -15 5 -11 -7 -33 22 -25 35 3 6 10 8 15 5 4 -3 14 3 21 12 12 15 12 16
-1 8 -36 -22 -62 -7 -38 22 8 10 8 14 1 10 -15 -9 -27 10 -16 26 4 7 1 5 -8
-4 -14 -16 -18 -12 -53 43 -20 32 -34 63 -31 68 3 5 -1 23 -10 40 -11 22 -13
35 -5 49 5 11 10 23 10 28 -1 4 -9 -7 -19 -25 l-17 -33 -12 26 c-7 15 -10 37
-7 49 5 15 4 17 -3 8 -11 -16 -49 82 -82 208 -18 69 -19 71 -15 25 l5 -50 -13
50 -12 49 -12 -56z m40 -53 c3 11 4 2 1 -20 -3 -26 -1 -33 4 -21 7 15 10 11
20 -23 24 -78 85 -213 92 -202 4 7 11 2 18 -14 7 -15 10 -31 7 -35 -3 -5 1
-20 10 -33 15 -23 14 -24 -11 -23 -25 2 -58 41 -48 58 3 4 -4 25 -15 46 -12
23 -18 49 -15 63 4 17 3 20 -4 10 -8 -11 -11 -9 -17 9 -6 18 -9 20 -17 9 -7
-11 -8 -9 -4 5 4 10 4 28 0 39 -5 16 -8 17 -16 6 -8 -11 -9 -10 -4 4 3 10 -2
45 -11 79 -13 47 -19 56 -25 42 -6 -15 -7 -13 -3 6 2 14 5 32 6 40 0 8 6 -3
13 -25 10 -32 14 -36 19 -20z m197 -420 c11 -17 24 -30 29 -30 5 0 13 -4 18
-8 4 -5 2 -7 -6 -5 -7 2 -16 -3 -19 -11 -2 -8 0 -11 6 -8 5 4 16 -1 23 -10 8
-10 9 -14 2 -10 -6 4 -14 3 -18 -3 -8 -13 -19 -6 -45 31 -12 16 -16 28 -10 27
7 -2 15 3 18 11 2 8 0 11 -6 7 -6 -3 -13 -2 -17 4 -4 6 -11 8 -16 5 -5 -3 -6
2 -2 11 4 11 3 15 -5 10 -6 -3 -13 -2 -16 2 -3 5 6 8 20 8 16 -1 32 -13 44
-31z m66 -117 c3 -4 -1 -5 -10 -4 -8 1 -18 5 -22 8 -3 4 1 5 10 4 8 -1 18 -5
22 -8z m72 -21 c-1 -2 4 -12 12 -23 14 -19 14 -19 -7 0 -13 10 -20 23 -17 28
3 5 8 7 11 4 2 -2 3 -6 1 -9z"/>
<path d="M1160 2033 c0 -15 42 -124 47 -120 2 2 -8 33 -21 68 -14 35 -25 59
-26 52z"/>
<path d="M1220 1877 c0 -4 9 -26 20 -48 12 -22 19 -43 16 -47 -2 -4 2 -18 10
-32 8 -15 13 -19 14 -10 0 13 1 13 10 0 6 -9 10 -10 10 -3 0 6 -5 15 -10 18
-6 4 -8 14 -6 23 3 10 1 24 -4 32 -9 13 -10 13 -10 0 -1 -8 -12 5 -25 30 -13
25 -24 41 -25 37z m51 -100 c-10 -9 -11 -8 -5 6 3 10 9 15 12 12 3 -3 0 -11
-7 -18z"/>
<path d="M1320 1691 c0 -6 4 -13 10 -16 6 -3 7 1 4 9 -7 18 -14 21 -14 7z"/>
<path d="M1346 1642 c-3 -6 2 -20 12 -33 13 -15 21 -19 26 -10 5 7 2 10 -6 9
-7 -2 -13 5 -13 14 0 21 -11 32 -19 20z"/>
<path d="M1172 2145 c0 -21 25 -107 27 -90 0 6 -6 33 -13 60 -8 28 -14 41 -14
30z"/>
<path d="M1091 2134 c0 -11 3 -14 6 -6 3 7 2 16 -1 19 -3 4 -6 -2 -5 -13z"/>
<path d="M1378 2142 c7 -5 10 -15 7 -23 -4 -10 2 -15 17 -16 13 -1 18 1 12 5
-6 4 -13 15 -17 25 -3 9 -12 17 -19 17 -11 0 -11 -2 0 -8z"/>
<path d="M1415 2130 c-3 -5 -1 -10 4 -10 6 0 11 5 11 10 0 6 -2 10 -4 10 -3 0
-8 -4 -11 -10z"/>
<path d="M1438 2053 c6 -2 12 -9 12 -14 0 -4 -6 -7 -12 -5 -7 1 -10 1 -5 -1 4
-3 7 -9 7 -14 0 -6 -4 -8 -9 -4 -14 8 -25 -15 -13 -27 7 -7 15 0 27 21 16 32
13 52 -8 50 -9 0 -9 -2 1 -6z"/>
<path d="M1241 2024 c0 -11 3 -14 6 -6 3 7 2 16 -1 19 -3 4 -6 -2 -5 -13z"/>
<path d="M1466 2015 c-9 -14 -13 -25 -8 -25 5 0 14 11 20 25 6 14 10 25 8 25
-2 0 -11 -11 -20 -25z"/>
<path d="M1475 1978 c-10 -20 -11 -26 -3 -17 15 19 37 3 30 -21 -2 -9 2 -6 11
5 15 18 14 21 -4 29 -11 5 -18 15 -15 23 10 26 -4 12 -19 -19z"/>
<path d="M2808 3609 c-21 -12 -24 -59 -6 -77 7 -7 21 -12 33 -12 28 0 45 19
45 50 0 44 -33 62 -72 39z"/>
<path d="M3304 3296 c-8 -21 3 -36 27 -36 15 0 20 6 17 22 -4 27 -35 37 -44
14z"/>
<path d="M3455 3080 c-11 -17 5 -32 21 -19 8 6 14 15 14 20 0 12 -27 11 -35
-1z"/>
<path d="M3270 1476 c0 -2 7 -6 15 -10 8 -3 15 -1 15 4 0 6 -7 10 -15 10 -8 0
-15 -2 -15 -4z"/>
<path d="M3256 1431 c-15 -6 -16 -9 -5 -13 8 -3 20 1 27 8 14 15 7 17 -22 5z"/>
<path d="M3190 1390 c-8 -5 -10 -10 -5 -10 6 0 17 5 25 10 8 5 11 10 5 10 -5
0 -17 -5 -25 -10z"/>
<path d="M3250 1390 c-8 -5 -10 -10 -5 -10 6 0 17 5 25 10 8 5 11 10 5 10 -5
0 -17 -5 -25 -10z"/>
<path d="M2797 1384 c-3 -5 1 -15 9 -22 16 -14 18 -5 5 17 -5 7 -11 9 -14 5z"/>
<path d="M2760 1370 c0 -5 -13 -8 -29 -6 -22 2 -28 0 -24 -11 3 -9 13 -11 27
-7 26 8 56 34 38 34 -7 0 -12 -4 -12 -10z"/>
<path d="M3060 1226 l-35 -13 50 0 c30 0 42 3 30 7 -20 7 -20 7 0 12 11 3 13
6 5 6 -8 0 -31 -5 -50 -12z"/>
<path d="M3079 1161 c11 -7 9 -10 -8 -16 -13 -4 -20 -9 -18 -11 2 -3 16 1 31
7 19 9 23 15 14 21 -7 4 -17 8 -23 8 -5 0 -4 -4 4 -9z"/>
<path d="M3005 1120 c-13 -6 -15 -9 -5 -9 8 0 22 4 30 9 18 12 2 12 -25 0z"/>
<path d="M2650 2465 l0 -215 40 -20 c22 -11 61 -23 87 -27 42 -6 44 -7 22 -16
-13 -5 -52 -6 -86 -3 l-63 5 0 -59 0 -60 68 0 c87 0 138 27 170 90 28 54 26
127 -5 168 -29 39 -90 70 -153 78 l-55 7 34 12 c56 19 81 57 81 123 0 37 -6
66 -16 81 -18 25 -71 51 -104 51 -19 0 -20 -6 -20 -215z"/>
<path d="M1480 1447 c24 -26 46 -47 49 -47 2 0 -5 10 -17 23 -12 13 -20 26
-17 29 3 3 -1 11 -10 18 -8 7 -15 9 -15 5 0 -4 -8 -1 -17 6 -10 7 2 -8 27 -34z"/>
</g>
</svg>
